<?xml version="1.0" standalone="no"?>
<!DOCTYPE svg PUBLIC "-//W3C//DTD SVG 20010904//EN"
 "http://www.w3.org/TR/2001/REC-SVG-20010904/DTD/svg10.dtd">
<svg version="1.0" xmlns="http://www.w3.org/2000/svg"
 width="1080.000000pt" height="1080.000000pt" viewBox="0 0 1080.000000 1080.000000"
 preserveAspectRatio="xMidYMid meet">

<g transform="translate(0.000000,1080.000000) scale(0.100000,-0.100000)"
fill="#000000" stroke="none">
<path d="M3940 9363 c-25 -2 -151 -14 -280 -28 -409 -42 -470 -46 -715 -44
l-241 3 -319 -193 -320 -193 65 6 c215 18 530 39 534 35 8 -7 -30 -2663 -40
-2881 l-7 -138 286 0 285 0 6 123 c11 215 51 1779 64 2519 4 224 10 410 14
413 3 3 84 9 179 12 346 12 571 -32 855 -167 162 -77 261 -145 369 -254 180
-182 255 -368 255 -632 0 -386 -144 -746 -373 -932 -110 -89 -234 -141 -389
-162 l-80 -11 -235 -162 -234 -161 87 -17 c145 -30 234 -79 360 -202 60 -58
163 -164 229 -236 l120 -131 373 0 c357 0 374 1 413 21 l41 20 -114 117 c-203
209 -663 704 -665 716 -1 6 55 39 125 73 250 122 419 240 578 406 211 219 316
433 354 720 20 155 4 346 -41 479 -30 91 -121 262 -179 339 -70 93 -211 225
-312 291 -293 193 -657 280 -1048 251z"/>
<path d="M8102 6308 c-297 -14 -852 -28 -1336 -35 l-501 -6 -237 -126 c-277
-147 -278 -139 5 -140 l167 -1 0 -35 0 -35 245 0 245 0 0 34 0 34 113 6 c61 3
195 8 297 11 102 3 300 10 440 16 274 12 296 9 325 -34 12 -18 13 -31 6 -50
-9 -22 24 -4 186 104 107 71 218 141 247 156 60 30 86 51 86 69 0 34 -76 42
-288 32z"/>
<path d="M4370 5756 c-14 -12 -35 -44 -48 -71 -34 -73 -163 -277 -170 -270 -4
3 -48 85 -98 182 -90 173 -92 175 -108 152 -11 -16 -16 -45 -16 -89 0 -93 -18
-284 -30 -314 -10 -27 0 -33 34 -20 15 6 15 8 1 18 -12 9 -13 18 -5 46 6 19
13 80 16 135 3 55 8 107 10 115 6 17 163 -275 164 -303 0 -26 45 28 66 80 18
42 146 243 155 243 8 0 22 -318 14 -330 -9 -14 35 -11 70 5 30 13 30 13 5 14
-23 1 -26 5 -23 34 2 17 0 114 -4 214 l-8 181 -25 -22z"/>
<path d="M2245 5763 c-66 -5 -84 -11 -66 -23 19 -11 11 -381 -9 -405 -11 -13
-9 -15 11 -15 13 1 38 7 54 15 l30 13 -29 1 c-23 1 -27 4 -20 19 4 9 11 89 15
177 4 88 7 168 8 178 2 36 118 10 140 -31 14 -26 14 -87 0 -113 -9 -18 -8 -19
9 -8 27 17 52 62 52 92 0 49 -84 114 -135 105 -5 -1 -32 -3 -60 -5z"/>
<path d="M2650 5745 c-19 -11 -21 -14 -7 -15 16 0 17 -14 15 -205 l-3 -205 70
1 c107 2 138 17 37 18 l-83 1 15 22 c11 16 16 46 16 99 l0 77 45 6 c25 4 49 5
53 2 5 -3 18 2 28 10 17 14 13 15 -53 10 l-73 -6 0 84 0 83 60 7 c33 4 65 4
70 1 6 -3 20 1 32 9 21 15 15 16 -87 16 -77 -1 -118 -5 -135 -15z"/>
<path d="M3125 5744 c-22 -10 -24 -13 -8 -10 13 2 39 0 60 -4 42 -10 86 5 62
21 -21 13 -80 10 -114 -7z"/>
<path d="M3380 5748 c-21 -9 -22 -12 -7 -15 15 -4 17 -21 17 -168 0 -101 4
-174 11 -189 25 -54 114 -69 199 -34 34 14 34 14 -33 10 -65 -4 -67 -4 -102
31 l-35 35 0 155 c0 149 1 155 23 170 22 16 22 16 -13 16 -19 0 -46 -5 -60
-11z"/>
<path d="M3670 5745 l-25 -14 23 -1 23 0 -1 -176 c-1 -96 -6 -188 -10 -205 -8
-27 -7 -29 18 -28 15 1 38 4 52 9 l25 7 -25 7 -25 7 3 193 c3 188 3 194 25
204 20 9 18 11 -18 11 -22 0 -51 -6 -65 -14z"/>
<path d="M4590 5745 c-19 -11 -21 -14 -7 -15 15 0 17 -11 17 -89 0 -62 -4 -91
-12 -94 -10 -4 -10 -6 0 -6 15 -1 17 -173 2 -202 -10 -18 -7 -19 67 -18 113 1
150 17 44 18 -73 1 -82 3 -71 16 7 8 15 53 17 99 l6 84 43 7 c24 3 48 4 52 1
5 -3 18 2 28 10 17 14 13 15 -53 10 l-73 -6 0 84 0 84 59 7 c33 4 64 5 68 2 5
-3 19 1 33 9 22 12 14 13 -85 13 -77 0 -117 -4 -135 -14z"/>
<path d="M4960 5745 c-19 -11 -21 -14 -7 -15 15 0 17 -11 17 -94 0 -66 -4 -96
-12 -99 -10 -4 -10 -6 0 -6 15 -1 17 -163 2 -192 -10 -17 -7 -19 22 -19 18 1
47 7 63 14 30 14 29 14 -15 8 -41 -5 -44 -4 -32 11 8 9 16 52 19 97 6 89 -2
80 85 84 15 1 33 8 40 15 11 10 1 11 -54 6 l-68 -7 0 90 0 90 59 7 c33 4 64 5
68 2 5 -3 19 1 33 9 22 12 14 13 -85 13 -77 0 -117 -4 -135 -14z"/>
<path d="M5310 5750 c-13 -8 -12 -10 3 -10 16 0 17 -15 17 -172 -1 -113 -5
-185 -13 -208 l-13 -35 108 5 c59 3 112 10 117 15 7 7 -22 9 -86 7 -90 -3 -95
-2 -87 15 8 19 12 78 16 276 l3 117 -25 0 c-14 0 -32 -5 -40 -10z"/>
<path d="M5796 5747 c-28 -12 -27 -13 27 -13 107 0 182 -82 182 -199 0 -104
-63 -185 -144 -185 -71 1 -156 59 -180 123 -26 68 -7 171 42 227 12 14 5 9
-16 -10 -52 -48 -77 -104 -77 -174 0 -112 76 -196 177 -196 83 0 208 89 234
167 6 19 9 63 7 98 -3 50 -10 70 -32 100 -50 65 -148 92 -220 62z"/>
<path d="M6165 5745 c-26 -12 -27 -13 -8 -14 20 -1 29 -21 83 -193 34 -106 63
-199 66 -207 11 -32 95 126 149 282 15 43 30 75 33 73 2 -3 26 -70 53 -148 26
-79 55 -160 64 -181 l16 -39 18 24 c24 31 54 89 48 94 -2 3 -10 -9 -17 -26 -7
-16 -16 -30 -20 -30 -9 0 -120 329 -120 354 0 8 6 17 13 19 6 3 -4 6 -23 6
-41 0 -111 -27 -73 -28 20 -1 22 -5 16 -33 -10 -53 -63 -198 -96 -263 -25 -50
-31 -57 -37 -40 -4 11 -29 91 -56 179 -46 153 -47 159 -29 172 17 13 16 14
-16 14 -19 -1 -47 -7 -64 -15z"/>
<path d="M6750 5745 c-25 -14 -25 -14 -2 -15 32 0 29 -40 -12 -152 -48 -132
-50 -140 -17 -73 16 33 41 97 57 143 21 63 34 87 53 97 26 14 26 14 -14 14
-22 0 -51 -6 -65 -14z"/>
<path d="M3031 5685 c-36 -41 -40 -81 -11 -112 11 -12 50 -38 88 -58 74 -38
98 -68 90 -110 l-5 -26 23 22 c29 28 31 72 4 99 -11 11 -46 33 -79 49 -92 47
-121 98 -85 149 23 33 10 26 -25 -13z"/>
<path d="M2320 5538 c-13 -5 -26 -10 -27 -12 -5 -5 192 -206 202 -206 6 1 21
7 35 15 l25 13 -25 10 c-25 10 -160 142 -176 173 -7 13 -15 14 -34 7z"/>
<path d="M2983 5364 c-17 -13 -17 -15 1 -29 34 -26 80 -29 127 -6 l44 20 -40
-5 c-28 -4 -51 1 -77 14 -32 17 -40 18 -55 6z"/>
<path d="M2551 5023 c-23 -188 -78 -485 -92 -497 -2 -2 -69 -47 -149 -100
l-145 -98 360 5 c339 5 366 7 465 30 137 32 205 56 375 128 130 55 543 256
501 244 -10 -3 -122 -10 -248 -16 -171 -9 -284 -9 -436 0 -113 6 -208 14 -211
17 -3 3 0 13 7 22 65 93 133 238 156 335 l6 27 -289 0 -289 0 -11 -97z"/>
<path d="M5166 5098 c323 -367 522 -563 656 -646 l36 -23 66 33 66 32 0 313 0
313 -422 0 -421 0 19 -22z"/>
<path d="M6208 4739 l-3 -381 -138 -73 c-131 -68 -136 -73 -106 -79 17 -3 81
-6 141 -6 l109 0 -4 -722 c-4 -775 -4 -775 -58 -935 -21 -65 -99 -193 -137
-227 -31 -27 -27 -39 11 -32 17 3 138 13 267 21 129 8 273 21 320 29 219 36
405 102 559 199 80 50 184 132 156 124 -58 -18 -163 -38 -270 -51 -146 -18
-489 -39 -565 -34 l-55 3 48 28 c70 41 126 102 160 176 29 62 30 67 39 295 4
127 11 433 14 679 5 320 10 449 18 452 6 2 162 11 346 20 366 19 406 16 436
-30 9 -13 13 -29 9 -35 -3 -5 76 45 177 112 101 68 207 137 236 155 60 37 70
68 25 79 -28 7 -241 0 -443 -16 -69 -5 -277 -12 -462 -16 l-338 -7 0 326 0
327 -245 0 -245 0 -2 -381z"/>
<path d="M6953 4778 c-23 -8 -33 -17 -33 -31 0 -21 2 -20 75 30 23 16 6 16
-42 1z"/>
</g>
</svg>
